<svg width="28" height="28" viewBox="0 0 28 28" fill="none" xmlns="http://www.w3.org/2000/svg">
<g clip-path="url(#clip0_1_4)">
<path fill-rule="evenodd" clip-rule="evenodd" d="M28 14C28 21.732 21.732 28 14 28C6.26801 28 0 21.732 0 14C0 6.26801 6.26801 0 14 0C21.732 0 28 6.26801 28 14ZM14 17.92C15.4043 17.92 16.6363 17.1832 17.3298 16.0755C18.0233 17.1832 19.2553 17.92 20.6596 17.92C22.827 17.92 24.584 16.165 24.584 14C24.584 11.835 22.827 10.08 20.6596 10.08C19.2553 10.08 18.0233 10.8168 17.3298 11.9245C16.6363 10.8168 15.4043 10.08 14 10.08C12.5957 10.08 11.3637 10.8168 10.6702 11.9245C9.97674 10.8168 8.74471 10.08 7.3404 10.08C5.17302 10.08 3.416 11.835 3.416 14C3.416 16.165 5.17302 17.92 7.3404 17.92C8.74471 17.92 9.97674 17.1832 10.6702 16.0755C11.3637 17.1832 12.5957 17.92 14 17.92Z" fill="black"/>
<path fill-rule="evenodd" clip-rule="evenodd" d="M10.6702 16.0755C10.2934 15.4736 10.0756 14.7622 10.0756 14C10.0756 13.2378 10.2934 12.5264 10.6702 11.9245C11.047 12.5264 11.2648 13.2378 11.2648 14C11.2648 14.7622 11.047 15.4736 10.6702 16.0755Z" fill="black"/>
<path fill-rule="evenodd" clip-rule="evenodd" d="M17.3298 11.9245C17.7067 12.5264 17.9244 13.2378 17.9244 14C17.9244 14.7622 17.7067 15.4736 17.3298 16.0755C16.953 15.4736 16.7352 14.7622 16.7352 14C16.7352 13.2378 16.953 12.5264 17.3298 11.9245Z" fill="black"/>
</g>
<defs>
<clipPath id="clip0_1_4">
<rect width="28" height="28" fill="white"/>
</clipPath>
</defs>
</svg>
